<?xml version="1.0" encoding="UTF-8"?>
<svg width="20px" height="22px" viewBox="0 0 20 22" version="1.1" xmlns="http://www.w3.org/2000/svg" xmlns:xlink="http://www.w3.org/1999/xlink">
    <!-- Generator: Sketch 55.2 (78181) - https://sketchapp.com -->
    <title>icon/reward/24px/shopping</title>
    <desc>Created with Sketch.</desc>
    <g id="Symbols" stroke="none" stroke-width="1" fill="none" fill-rule="evenodd">
        <g id="navigation/desktop/button/cart-empty" transform="translate(-10.000000, -9.000000)">
            <g id="cart-filled">
                <g id="icon/reward/24px/shopping-grey" transform="translate(8.000000, 8.000000)">
                    <g id="icon/reward/24px/shopping">
                        <rect id="ic_category_shopping" x="0" y="0" width="24" height="24"></rect>
                        <g id="Group-6" transform="translate(1.900000, 2.000000)" stroke="#676767">
                            <path d="M2.90254295,5.1 C2.63489801,5.1 2.40361713,5.33408857 2.3731717,5.63375376 L1.0022275,19.1989712 C0.975727288,19.4611854 1.22142963,19.7 1.53159875,19.7 L18.6684012,19.7 C18.9779724,19.7 19.2242542,19.4604066 19.1977725,19.1989712 L17.8268617,5.63408331 C17.7963817,5.33447347 17.5648285,5.1 17.297457,5.1 L15.2410407,5.1 C14.7921216,5.1 14.7921216,5.1 13.5081923,5.1 C11.9459262,5.1 11.9459262,5.1 10.1053234,5.1 C8.22927512,5.1 8.22927512,5.1 6.64795548,5.1 C5.36136445,5.1 5.36136445,5.1 4.95895925,5.1 L2.90254295,5.1 Z" id="Shape" fill-rule="nonzero"></path>
                            <path d="M10.1,7.73326896 L10.1,5.18518519 C10.1139408,1.72839506 11.5139408,-1.77635684e-14 14.3,-1.77635684e-14" id="Path-6-Copy-3" transform="translate(12.200000, 3.866634) scale(-1, 1) translate(-12.200000, -3.866634) "></path>
                            <path d="M5.9,7.6 L5.9,5.18518519 C5.91394083,1.72839506 7.31394083,-1.77635684e-14 10.1,-1.77635684e-14" id="Path-6-Copy-4"></path>
                            <circle id="Oval-3-Copy-4" stroke-linecap="round" stroke-linejoin="round" cx="5.9" cy="8.8" r="1.2"></circle>
                            <circle id="Oval-3-Copy-4" stroke-linecap="round" stroke-linejoin="round" cx="14.3" cy="8.8" r="1.2"></circle>
                        </g>
                    </g>
                </g>
            </g>
        </g>
    </g>
</svg>