<svg xmlns="http://www.w3.org/2000/svg" width="24" height="24" viewBox="0 0 24 24">
    <g fill="#00B14F" fill-rule="nonzero">
        <path d="M12.746 2.53l-9.95 9.383a.972.972 0 0 0-.062 1.333l3.739 3.984 3.73 3.974c.376.379.937.393 1.315.06l10.139-9.56a.5.5 0 1 1 .686.727l-10.152 9.572c-.784.692-1.946.663-2.708-.105l-3.74-3.984-3.751-3.997c-.685-.788-.656-1.953.106-2.72l10.139-9.56a.5.5 0 0 1 .417-.131l8.701 1.303a.5.5 0 0 1 .424.455l.504 6.374a.5.5 0 0 1-.997.079l-.472-5.978-8.068-1.209z"/>
        <path d="M15.622 9.934c-.88-.072-1.545-.812-1.466-1.667.078-.851.86-1.467 1.737-1.395.88.072 1.544.812 1.466 1.666-.078.851-.861 1.467-1.737 1.396zm.19-2.066c-.344-.028-.634.2-.66.49-.027.286.212.551.551.579.344.028.634-.2.66-.49.026-.285-.212-.55-.552-.579z"/>
    </g>
</svg>
