<svg xmlns="http://www.w3.org/2000/svg" width="168" height="53" viewBox="0 0 168 53">
    <defs>
        <linearGradient id="a" x1="62.011%" x2="24.435%" y1="4.984%" y2="71.89%">
            <stop offset="0%" stop-color="#00A0FF"/>
            <stop offset="1%" stop-color="#00A1FF"/>
            <stop offset="26%" stop-color="#00BEFF"/>
            <stop offset="51%" stop-color="#00D2FF"/>
            <stop offset="76%" stop-color="#00DFFF"/>
            <stop offset="100%" stop-color="#00E3FF"/>
        </linearGradient>
        <linearGradient id="b" x1="108.004%" x2="-131.126%" y1="50.058%" y2="50.058%">
            <stop offset="0%" stop-color="#FFE000"/>
            <stop offset="41%" stop-color="#FFBD00"/>
            <stop offset="78%" stop-color="#FFA500"/>
            <stop offset="100%" stop-color="#FF9C00"/>
        </linearGradient>
        <linearGradient id="c" x1="86.219%" x2="-50.09%" y1="32.451%" y2="129.015%">
            <stop offset="0%" stop-color="#FF3A44"/>
            <stop offset="100%" stop-color="#C31162"/>
        </linearGradient>
        <linearGradient id="d" x1="-18.814%" x2="42.121%" y1="-6.816%" y2="36.309%">
            <stop offset="0%" stop-color="#32A071"/>
            <stop offset="7%" stop-color="#2DA771"/>
            <stop offset="48%" stop-color="#15CF74"/>
            <stop offset="80%" stop-color="#06E775"/>
            <stop offset="100%" stop-color="#00F076"/>
        </linearGradient>
    </defs>
    <g fill="none" fill-rule="evenodd">
        <path fill="#000" stroke="#979797" d="M8.765.5C4.201.5.5 4.23.5 8.833v35.334C.5 48.77 4.201 52.5 8.765 52.5h150.47c4.564 0 8.265-3.73 8.265-8.333V8.833C167.5 4.23 163.799.5 159.235.5H8.765z"/>
        <path fill="url(#a)" d="M1.74 1.6a2.225 2.225 0 0 0-.548 1.6v25.28c-.036.58.16 1.153.549 1.6l.095.091L16.61 16v-.343L1.836 1.51l-.095.091z" transform="translate(11.18 10.255)"/>
        <path fill="url(#b)" d="M21.533 20.731L16.61 16v-.343l4.924-4.72.107.069 5.783 3.188c1.67.903 1.67 2.389 0 3.292l-5.83 3.177-.06.068z" transform="translate(11.18 10.255)"/>
        <path fill="url(#c)" d="M21.64 20.663L16.61 15.84 1.74 30.08c.7.596 1.745.625 2.48.069l17.42-9.486" transform="translate(11.18 10.255)"/>
        <path fill="url(#d)" d="M21.64 11.017L4.22 1.531a1.996 1.996 0 0 0-2.48.069L16.61 15.84l5.031-4.823z" transform="translate(11.18 10.255)"/>
        <path fill="#000" d="M32.713 30.827l-17.312 9.417c-.706.51-1.68.51-2.385 0l-.095.08.095.091c.704.515 1.68.515 2.385 0l17.42-9.486-.108-.102z" opacity=".2"/>
        <path fill="#000" d="M12.92 40.175a2.224 2.224 0 0 1-.548-1.611v.171c-.036.581.16 1.153.549 1.6l.095-.08-.095-.08zM38.603 27.58l-5.962 3.235.108.103 5.854-3.177a2.01 2.01 0 0 0 1.252-1.646 2.147 2.147 0 0 1-1.252 1.486z" opacity=".12"/>
        <path fill="#FFF" d="M15.4 11.947l23.203 12.662a2.147 2.147 0 0 1 1.252 1.486 2.01 2.01 0 0 0-1.252-1.646L15.401 11.787c-1.67-.915-3.029-.16-3.029 1.668v.229c0-1.886 1.36-2.64 3.029-1.737z" opacity=".25"/>
        <path fill="#FFF" d="M57.102 15.257c0 1.046-.303 1.879-.908 2.5-.689.74-1.585 1.109-2.687 1.109-1.055 0-1.953-.375-2.69-1.125-.74-.749-1.109-1.679-1.109-2.787 0-1.11.368-2.039 1.108-2.789.738-.749 1.636-1.123 2.691-1.123.523 0 1.025.105 1.5.313.477.21.859.488 1.145.836l-.643.66c-.484-.592-1.15-.89-2.002-.89-.77 0-1.435.278-1.997.832-.562.555-.842 1.274-.842 2.16 0 .886.28 1.606.842 2.16.562.556 1.227.831 1.997.831.817 0 1.497-.278 2.043-.836.354-.363.558-.867.612-1.516h-2.655v-.9h3.543c.035.196.052.383.052.565zm5.617-3.128h-3.33v2.374h3.003v.9H59.39v2.374h3.33v.922h-4.27v-7.49h4.27v.92zm3.963 6.57h-.94v-6.57H63.7v-.92h5.026v.92h-2.043v6.57zm5.679 0v-7.49h.94v7.49h-.94zm5.107 0h-.94v-6.57h-2.043v-.92h5.025v.92h-2.042v6.57zm6.887-1.596a2.65 2.65 0 0 0 1.987.841c.782 0 1.445-.28 1.986-.84.542-.563.813-1.279.813-2.15 0-.872-.271-1.59-.813-2.15a2.654 2.654 0 0 0-1.986-.842c-.784 0-1.446.28-1.987.842-.54.56-.812 1.278-.812 2.15 0 .871.272 1.587.812 2.15zm4.668.627c-.719.757-1.612 1.136-2.681 1.136-1.07 0-1.963-.379-2.68-1.136-.72-.757-1.078-1.682-1.078-2.776 0-1.095.359-2.021 1.078-2.778.717-.756 1.61-1.134 2.68-1.134 1.063 0 1.954.38 2.676 1.14.722.76 1.083 1.683 1.083 2.772 0 1.094-.36 2.02-1.078 2.776zm2.396.968v-7.49h1.143l3.554 5.826h.042l-.042-1.443V11.21h.941v7.49h-.98l-3.718-6.11h-.042l.042 1.444v4.665h-.94zM129.252 39.815h2.273V24.21h-2.273v15.604zm20.485-9.984l-2.607 6.766h-.078l-2.706-6.766h-2.45l4.059 9.456-2.315 5.26h2.372l6.254-14.716h-2.53zm-12.899 8.211c-.743 0-1.783-.382-1.783-1.325 0-1.204 1.295-1.667 2.412-1.667.998 0 1.47.223 2.077.522-.177 1.447-1.392 2.47-2.706 2.47zm.276-8.553c-1.647 0-3.352.744-4.058 2.39l2.019.863c.431-.863 1.234-1.144 2.078-1.144 1.176 0 2.372.722 2.391 2.007v.16c-.412-.24-1.294-.6-2.372-.6-2.177 0-4.391 1.224-4.391 3.512 0 2.088 1.784 3.434 3.783 3.434 1.528 0 2.373-.703 2.9-1.527h.08v1.205h2.196v-5.983c0-2.77-2.02-4.317-4.626-4.317zm-14.056 2.242h-3.234v-5.349h3.234c1.7 0 2.666 1.44 2.666 2.674 0 1.21-.965 2.675-2.666 2.675zM123 24.21h-5.45v15.606h2.274v-5.912H123c2.52 0 4.998-1.87 4.998-4.847 0-2.977-2.478-4.847-4.998-4.847zM93.284 38.045c-1.57 0-2.886-1.347-2.886-3.197 0-1.871 1.315-3.238 2.886-3.238 1.55 0 2.768 1.367 2.768 3.238 0 1.85-1.217 3.197-2.768 3.197zm2.61-7.34h-.077c-.51-.623-1.493-1.187-2.729-1.187-2.592 0-4.97 2.333-4.97 5.33 0 2.976 2.378 5.289 4.97 5.289 1.236 0 2.218-.563 2.729-1.207h.078v.764c0 2.032-1.06 3.117-2.768 3.117-1.394 0-2.258-1.025-2.612-1.89l-1.983.845c.57 1.407 2.08 3.137 4.595 3.137 2.67 0 4.929-1.61 4.929-5.531V29.84h-2.161v.865zm3.733 9.11h2.277V24.21h-2.277v15.604zm5.634-5.148c-.058-2.052 1.552-3.097 2.71-3.097.904 0 1.67.463 1.926 1.126l-4.636 1.971zm7.07-1.77c-.433-1.186-1.748-3.379-4.438-3.379-2.67 0-4.89 2.152-4.89 5.31 0 2.976 2.2 5.309 5.145 5.309 2.375 0 3.75-1.488 4.32-2.353l-1.767-1.207c-.59.885-1.394 1.468-2.553 1.468-1.158 0-1.983-.543-2.512-1.61l6.93-2.935-.236-.603zm-55.222-1.749V33.4h5.261c-.156 1.267-.569 2.192-1.196 2.835-.767.785-1.965 1.65-4.065 1.65-3.241 0-5.774-2.675-5.774-5.993 0-3.318 2.533-5.994 5.774-5.994 1.748 0 3.024.704 3.966 1.61l1.551-1.589c-1.316-1.287-3.063-2.273-5.517-2.273-4.44 0-8.17 3.701-8.17 8.246 0 4.544 3.73 8.245 8.17 8.245 2.395 0 4.201-.805 5.615-2.313 1.453-1.488 1.905-3.58 1.905-5.269 0-.522-.04-1.005-.118-1.407h-7.402zm13.502 6.897c-1.57 0-2.925-1.327-2.925-3.217 0-1.91 1.355-3.218 2.925-3.218 1.57 0 2.926 1.307 2.926 3.218 0 1.89-1.355 3.217-2.926 3.217zm0-8.527c-2.867 0-5.203 2.233-5.203 5.31 0 3.057 2.336 5.309 5.203 5.309 2.868 0 5.204-2.252 5.204-5.309 0-3.077-2.336-5.31-5.204-5.31zm11.352 8.527c-1.571 0-2.927-1.327-2.927-3.217 0-1.91 1.356-3.218 2.927-3.218 1.57 0 2.925 1.307 2.925 3.218 0 1.89-1.354 3.217-2.925 3.217zm0-8.527c-2.867 0-5.203 2.233-5.203 5.31 0 3.057 2.336 5.309 5.203 5.309 2.866 0 5.203-2.252 5.203-5.309 0-3.077-2.337-5.31-5.203-5.31z"/>
    </g>
</svg>
