<svg xmlns="http://www.w3.org/2000/svg" width="168" height="53" viewBox="0 0 168 53">
    <g fill="none" fill-rule="evenodd">
        <path fill="#000" stroke="#979797" d="M8.765.5C4.201.5.5 4.23.5 8.833v35.334C.5 48.77 4.201 52.5 8.765 52.5h150.47c4.564 0 8.265-3.73 8.265-8.333V8.833C167.5 4.23 163.799.5 159.235.5H8.765z"/>
        <g fill="#FFF">
            <path d="M34.757 26.898a6.568 6.568 0 0 1 3.098-5.501 6.647 6.647 0 0 0-5.247-2.859c-2.208-.234-4.348 1.331-5.473 1.331-1.147 0-2.88-1.308-4.745-1.27a6.982 6.982 0 0 0-5.88 3.615c-2.544 4.437-.647 10.957 1.789 14.544 1.219 1.756 2.643 3.717 4.507 3.648 1.823-.077 2.504-1.172 4.706-1.172 2.18 0 2.82 1.172 4.721 1.127 1.957-.032 3.19-1.763 4.366-3.536a14.571 14.571 0 0 0 1.996-4.098 6.337 6.337 0 0 1-3.838-5.829zM31.165 16.18a6.49 6.49 0 0 0 1.466-4.626 6.502 6.502 0 0 0-4.217 2.2 6.173 6.173 0 0 0-1.504 4.453 5.373 5.373 0 0 0 4.255-2.028z"/>
        </g>
        <g fill="#FFF" fill-rule="nonzero">
            <path d="M60 35.96h-6.222l-1.495 4.447h-2.636l5.895-16.454h2.738l5.895 16.454h-2.68L60 35.96zm-5.578-2.052h4.933l-2.432-7.218h-.068l-2.433 7.218zm22.484.502c0 3.728-1.98 6.123-4.968 6.123-1.544.081-3-.734-3.745-2.099h-.057v5.942h-2.443V28.41h2.365v1.995h.045a4.216 4.216 0 0 1 3.79-2.12c3.021 0 5.013 2.406 5.013 6.124zm-2.512 0c0-2.429-1.245-4.026-3.146-4.026-1.866 0-3.122 1.63-3.122 4.026 0 2.417 1.256 4.036 3.122 4.036 1.9 0 3.146-1.585 3.146-4.036zm15.613 0c0 3.728-1.98 6.123-4.967 6.123-1.545.081-3-.734-3.746-2.099h-.056v5.942h-2.444V28.41h2.365v1.995h.045a4.216 4.216 0 0 1 3.79-2.12c3.022 0 5.013 2.406 5.013 6.124zm-2.511 0c0-2.429-1.246-4.026-3.146-4.026-1.867 0-3.123 1.63-3.123 4.026 0 2.417 1.256 4.036 3.123 4.036 1.9 0 3.146-1.585 3.146-4.036zm11.17 1.413c.181 1.632 1.754 2.703 3.904 2.703 2.059 0 3.54-1.072 3.54-2.543 0-1.277-.893-2.042-3.009-2.566l-2.116-.513c-2.998-.73-4.39-2.143-4.39-4.436 0-2.839 2.455-4.789 5.941-4.789 3.45 0 5.815 1.95 5.895 4.789h-2.467c-.147-1.642-1.494-2.633-3.463-2.633-1.968 0-3.315 1.003-3.315 2.462 0 1.163.86 1.848 2.965 2.372l1.799.445c3.35.798 4.741 2.155 4.741 4.561 0 3.079-2.433 5.007-6.303 5.007-3.62 0-6.065-1.883-6.223-4.86h2.501zm15.299-10.25v2.838h2.263v1.95h-2.263v6.613c0 1.028.453 1.507 1.448 1.507.269-.005.537-.024.804-.057v1.938a6.66 6.66 0 0 1-1.357.114c-2.41 0-3.35-.912-3.35-3.239v-6.876h-1.731v-1.95h1.73v-2.839h2.456zm3.574 8.837c0-3.775 2.206-6.146 5.646-6.146 3.451 0 5.647 2.371 5.647 6.146 0 3.785-2.184 6.146-5.647 6.146-3.462 0-5.646-2.361-5.646-6.146zm8.803 0c0-2.59-1.177-4.117-3.157-4.117s-3.156 1.54-3.156 4.117c0 2.6 1.176 4.116 3.156 4.116 1.98 0 3.157-1.517 3.157-4.116zm4.504-5.999h2.33v2.042h.057a2.842 2.842 0 0 1 2.864-2.167c.281-.001.562.03.837.091v2.304a3.391 3.391 0 0 0-1.098-.15 2.453 2.453 0 0 0-1.903.79c-.49.531-.725 1.251-.643 1.97v7.116h-2.444V28.411zm17.353 8.473c-.329 2.178-2.433 3.672-5.125 3.672-3.463 0-5.613-2.338-5.613-6.09 0-3.762 2.161-6.202 5.51-6.202 3.293 0 5.364 2.28 5.364 5.917v.844h-8.407v.148a3.14 3.14 0 0 0 .84 2.428 3.088 3.088 0 0 0 2.362.97 2.691 2.691 0 0 0 2.75-1.687h2.32zm-8.26-3.58h5.952a2.898 2.898 0 0 0-.8-2.166 2.852 2.852 0 0 0-2.12-.88 3.002 3.002 0 0 0-2.145.887 3.049 3.049 0 0 0-.887 2.159zM54.116 11.305a3.4 3.4 0 0 1 2.768 1.118 3.7 3.7 0 0 1 .923 2.935c0 2.606-1.354 4.104-3.691 4.104h-2.834v-8.157h2.834zM52.5 18.308h1.479a2.42 2.42 0 0 0 1.965-.826c.502-.57.73-1.343.622-2.107.1-.761-.132-1.529-.632-2.093a2.426 2.426 0 0 0-1.955-.824H52.5v5.85zm6.683-1.927c-.102-1.103.407-2.171 1.313-2.755a2.714 2.714 0 0 1 2.957 0c.906.584 1.415 1.652 1.314 2.755.103 1.105-.405 2.175-1.312 2.76a2.714 2.714 0 0 1-2.96 0c-.907-.585-1.416-1.655-1.312-2.76zm4.382 0c0-1.334-.577-2.114-1.588-2.114-1.016 0-1.587.78-1.587 2.114 0 1.345.571 2.12 1.587 2.12 1.011 0 1.588-.78 1.588-2.12zm8.624 3.08h-1.212l-1.223-4.533h-.093l-1.218 4.534h-1.2l-1.633-6.156h1.185l1.06 4.697h.088l1.217-4.697h1.121l1.217 4.697h.093l1.055-4.697h1.169l-1.626 6.156zm2.998-6.155h1.125v.978h.087c.304-.72 1.013-1.16 1.767-1.097a1.887 1.887 0 0 1 1.554.633c.399.445.581 1.055.495 1.657v3.985h-1.168v-3.68c0-.99-.414-1.481-1.278-1.481-.395-.02-.78.142-1.051.442-.272.3-.404.708-.362 1.118v3.6h-1.169v-6.155zm6.89-2.403h1.168v8.559h-1.168v-8.559zm2.793 5.478c-.102-1.103.407-2.171 1.313-2.756a2.714 2.714 0 0 1 2.958 0c.906.585 1.415 1.653 1.313 2.756.104 1.105-.405 2.175-1.311 2.76a2.715 2.715 0 0 1-2.962 0c-.906-.585-1.415-1.655-1.311-2.76zm4.382 0c0-1.334-.577-2.114-1.588-2.114-1.016 0-1.587.78-1.587 2.114 0 1.345.571 2.12 1.587 2.12 1.011 0 1.588-.78 1.588-2.12zm2.432 1.34c0-1.108.794-1.747 2.202-1.838l1.604-.096v-.531c0-.65-.413-1.017-1.212-1.017-.652 0-1.104.249-1.234.684h-1.131c.12-1.058 1.076-1.736 2.419-1.736 1.484 0 2.321.769 2.321 2.069v4.206H95.53v-.865h-.093a1.972 1.972 0 0 1-1.778.966 1.745 1.745 0 0 1-1.38-.466 1.893 1.893 0 0 1-.594-1.376zm3.806-.526v-.515l-1.446.096c-.815.057-1.185.346-1.185.888 0 .554.462.877 1.098.877a1.36 1.36 0 0 0 1.04-.335c.29-.254.467-.619.493-1.011zm2.699-.814c0-1.945.962-3.177 2.457-3.177a1.939 1.939 0 0 1 1.816 1.08h.087v-3.381h1.169v8.559h-1.12v-.973h-.092a2.04 2.04 0 0 1-1.86 1.074c-1.506 0-2.457-1.232-2.457-3.182zm1.207 0c0 1.306.592 2.092 1.582 2.092.985 0 1.593-.797 1.593-2.086 0-1.283-.615-2.092-1.593-2.092-.984 0-1.582.791-1.582 2.086zm9.156 0c-.102-1.103.407-2.171 1.313-2.755a2.714 2.714 0 0 1 2.958 0c.905.584 1.414 1.652 1.313 2.755.103 1.105-.405 2.175-1.312 2.76a2.714 2.714 0 0 1-2.96 0c-.907-.585-1.416-1.655-1.312-2.76zm4.382 0c0-1.334-.577-2.114-1.588-2.114-1.016 0-1.587.78-1.587 2.114 0 1.345.571 2.12 1.587 2.12 1.012 0 1.588-.78 1.588-2.12zm2.77-3.075h1.124v.978h.088c.303-.72 1.013-1.16 1.766-1.097a1.887 1.887 0 0 1 1.554.633c.399.445.581 1.055.496 1.657v3.985h-1.169v-3.68c0-.99-.413-1.481-1.277-1.481-.396-.02-.78.142-1.052.442-.272.3-.404.708-.362 1.118v3.6h-1.168v-6.155zm11.63-1.533v1.561h1.282v1.023h-1.282v3.166c0 .645.255.927.837.927.149 0 .298-.01.445-.028v1.012c-.21.039-.422.06-.635.062-1.3 0-1.817-.475-1.817-1.662v-3.477h-.94v-1.023h.94v-1.56h1.17zm2.878-.87h1.159v3.392h.092c.318-.726 1.04-1.167 1.805-1.102a1.913 1.913 0 0 1 1.539.648 2.08 2.08 0 0 1 .5 1.646v3.975h-1.17v-3.675c0-.983-.44-1.481-1.265-1.481a1.353 1.353 0 0 0-1.095.42c-.287.3-.432.718-.396 1.14v3.596h-1.169v-8.559zm11.908 6.897c-.328 1.16-1.408 1.911-2.565 1.78a2.642 2.642 0 0 1-2.075-.93 2.87 2.87 0 0 1-.66-2.247 2.916 2.916 0 0 1 .659-2.255 2.686 2.686 0 0 1 2.07-.96c1.648 0 2.641 1.17 2.641 3.102v.424h-4.18v.068c-.037.457.113.909.413 1.245.3.336.723.524 1.164.519a1.405 1.405 0 0 0 1.408-.746h1.125zm-4.11-1.984H141a1.52 1.52 0 0 0-.389-1.133 1.402 1.402 0 0 0-1.068-.462 1.485 1.485 0 0 0-1.09.461c-.289.3-.448.71-.443 1.134z"/>
        </g>
    </g>
</svg>
