<svg height="47" viewBox="0 0 255 47" width="255" xmlns="http://www.w3.org/2000/svg"><path d="m151.561 30.992-14.453.005.005 16-7.1.003-.013-40.993 22.998-.007.002 6.942-15.897.005.003 11.107 14.453-.005zm28.075-2.418c-.002-5.17-3.618-8.66-8.639-8.658-5.02.001-8.634 3.493-8.632 8.663v2.715c.002 5.17 3.618 8.854 8.639 8.852 5.02 0 8.634-3.686 8.633-8.858zm7.363-.002.001 2.715c.004 9.373-6.287 15.71-15.994 15.713-9.706.003-16.002-6.33-16.005-15.704l-.001-2.715c-.003-9.37 6.288-15.578 15.995-15.581 9.706-.004 16.001 6.2 16.004 15.572zm26.636.002c-.001-5.17-3.617-8.66-8.637-8.658-5.021.002-8.635 3.493-8.633 8.663v2.715c.002 5.171 3.618 8.854 8.639 8.853 5.02-.002 8.635-3.687 8.633-8.858zm7.364-.002.001 2.714c.003 9.374-6.288 15.711-15.994 15.714-9.707.003-16.002-6.33-16.005-15.704l-.001-2.714c-.002-9.372 6.288-15.579 15.995-15.582 9.706-.003 16 6.2 16.004 15.572zm-102.469-10.868c-2.883-2.857-6.667-4.43-10.655-4.429-2.917 0-5.848 1.078-7.459 2.144-3.331 2.202-6.072 4.595-11.004 10.917l.001 4.542c4.186-5.408 8.144-9.671 11.151-12.014 1.977-1.575 4.781-2.55 7.312-2.55 6.535-.003 12.059 5.468 12.061 11.95v2.735c.001 3.202-1.268 6.213-3.577 8.478a12.045 12.045 0 0 1 -8.476 3.482c-5.369.002-10.098-3.653-11.383-8.644l-2.158 2.595c1.574 5.232 7.265 9.088 13.542 9.087 3.989-.001 7.771-1.577 10.654-4.431 2.878-2.861 4.462-6.612 4.461-10.569l-.001-2.735c-.001-3.953-1.588-7.706-4.469-10.558zm-65.6-1.373c2.08-.001 3.88.44 5.504 1.351.765-.945 1.535-1.713 2.107-2.282-1.717-1.302-4.626-2.108-7.612-2.108-4.253.002-8.114 1.524-10.871 4.288-2.739 2.741-4.247 6.544-4.245 10.71l.005 17.729h3.062l-.006-17.73c-.002-7.039 4.956-11.956 12.056-11.959zm29.113 29.674-.005-17.73c-.002-5.449-4.311-9.72-9.807-9.717-2.561 0-5.005 1.03-6.886 2.898-1.879 1.863-2.915 4.288-2.915 6.825l.002 2.736c0 5.267 4.494 9.72 9.805 9.72 1.457-.001 3.44-.357 4.65-1.347v-3.208c-1.191.95-2.922 1.515-4.65 1.516-3.779.001-6.741-2.935-6.743-6.682v-2.736c-.002-3.747 2.96-6.682 6.737-6.683 3.781-.002 6.743 2.932 6.744 6.678l.005 17.73 3.063-.001zm-82.043-19.461v.98c.002 5.264 2.019 10.177 5.679 13.83 3.65 3.644 8.546 5.648 13.78 5.646 4.207-.002 7.935-.944 11.081-2.803 2.592-1.534 3.74-3.083 3.84-3.224l-.005-16.349-15.667.005.001 3.038 12.605-.004.005 12.365-.013.011c-1.477 1.469-4.978 3.922-11.848 3.924-4.476.002-8.622-1.688-11.675-4.77-3.045-3.062-4.718-7.208-4.719-11.67v-.98c-.002-4.215 1.912-8.42 5.251-11.53a18.323 18.323 0 0 1 12.512-4.922c4.343-.001 7.372.652 9.802 2.11l-.001-3.407c-2.53-1.068-5.556-1.545-9.802-1.544-11.291.003-20.83 8.84-20.826 19.294zm52.931-4.94c1.163-.001 2.148.19 2.931.569.384-.943.775-1.722 1.343-2.664-.834-.592-2.816-.946-4.274-.945-5.588.002-9.8 4.181-9.798 9.724l.005 17.73 3.062-.002-.006-17.73c-.001-3.933 2.768-6.681 6.737-6.682zm-22.3-3.56-.001-3.588c-2.77-1.474-5.794-2.13-9.802-2.13-4.092.002-7.97 1.492-10.923 4.19-2.957 2.707-4.587 6.267-4.586 10.026v.98c.003 7.835 6.344 14.21 14.138 14.206 6.341-.002 8.943-2.061 9.607-2.71l-.004-9.118-10.35.004v3.035l7.484-.002.002 4.567-.027.008c-.962.382-2.964 1.177-6.714 1.178-2.972.002-5.754-1.147-7.836-3.234-2.088-2.092-3.237-4.911-3.238-7.935v-.98c-.002-6.055 5.698-11.175 12.447-11.176 4.668-.002 7.429.75 9.802 2.68zm72.294 5.7c1.38-1.37 3.189-2.157 4.953-2.158 3.778 0 6.741 2.932 6.742 6.679l.001 2.735c.001 3.747-2.96 6.685-6.739 6.686-1.83.001-3.596-.993-4.981-2.797-1.23-1.594-2.023-3.75-2.148-5.686l-2.479 3.004c.488 2.299 1.701 4.497 3.411 6.043 1.767 1.593 3.967 2.475 6.198 2.475 5.407-.002 9.802-4.364 9.8-9.726v-2.735c-.001-2.537-1.039-4.963-2.919-6.824-1.883-1.866-4.327-2.894-6.888-2.894-1.618 0-4.191.579-7.256 3.314l-.01.012c-.823.813-2.75 2.725-3.922 4.086-1.97 2.135-4.835 5.354-7.273 8.578v4.743c2.707-3.453 4.267-5.386 6.812-8.301 2.278-2.64 5.101-5.845 6.698-7.234zm-45.81 7.275c.001 3.956 1.589 7.706 4.47 10.565 2.882 2.852 6.665 4.425 10.654 4.424 1.687 0 3.425-.36 4.65-.959v-3.033c-1.432.595-3.164.954-4.65.954-6.535.002-12.061-5.472-12.063-11.952l-.001-2.735c-.003-6.482 5.52-11.957 12.055-11.958 3.248-.002 6.287 1.23 8.55 3.474 2.265 2.245 3.51 5.256 3.511 8.475l.005 17.73h3.063l-.006-18.315c-.19-3.867-1.858-7.487-4.692-10.193-2.84-2.715-6.547-4.21-10.432-4.21-3.987.001-7.771 1.577-10.652 4.436-2.88 2.855-4.464 6.608-4.463 10.561v2.736zm35.447-11.769c.936-1.114 1.906-2.25 3.06-3.206l-.007-16.042-3.06.001.006 19.247zm5.314-4.451-.004-14.799 3.06-.001.004 12.717c-.832.415-1.995 1.207-3.06 2.082zm127.124 16.783c.004 9.203 5.88 15.42 15.037 15.418 9.158-.003 14.966-6.225 14.963-15.428l-.01-29.572-6.947.002.01 29.573c.001 5.076-3.281 8.631-8.018 8.632-4.737.002-8.086-3.55-8.088-8.628v-2.728c-.002-5.013 3.344-8.442 8.081-8.443 4.8-.001 8.022 3.17 8.023 7.866l-.003-11.422c-1.01-1.523-4.232-3.235-8.022-3.234-9.157.002-15.029 6.097-15.026 15.235z" fill="#fff" fill-rule="evenodd"/></svg>